<svg xmlns="http://www.w3.org/2000/svg" id="Layer_1" version="1.1" viewBox="0 0 800 800"><defs><style>.st0{fill:none;stroke:#fff;stroke-linecap:round;stroke-miterlimit:333.3;stroke-width:39px}</style></defs><rect width="800" height="800" x="-.4" y=".3" rx="130" ry="130" style="fill:#4f46e5"/><g id="SVGRepo_iconCarrier"><path d="M531.1 348.8c-1.9 6.4-3.2 13-3.9 19.6-4.1 37.2-35.8 66.1-74 65.9H345.3c-41 0-74.2-33.2-74.2-74.2h0c.5-25.9-17.4-48.5-42.8-53.8-27.9-4.9-54.6 13.8-59.5 41.7-.5 3-.8 6.1-.8 9.1h0c.1 99.4 80.8 179.9 180.2 179.9h102.7c99.4 0 180-80.5 180.2-179.9h0c0-28.4-22.9-51.4-51.3-51.4s-3.7.2-4.9.4c-22.1 4.7-37.3 21.1-43.8 42.7h0Z" class="st0"/><path d="M244.7 313v-58.6c0-85.2 69.1-154.4 154.3-154.4s154.4 69.1 154.4 154.3h0v58.6M244.7 700.5l25.8-180.1M527.6 520.4l25.8 180.1" class="st0"/></g></svg>